<svg width="328" height="171" viewBox="0 0 328 171" fill="none" xmlns="http://www.w3.org/2000/svg">
<path fill-rule="evenodd" clip-rule="evenodd" d="M297.083 140.907H298.399L304.538 135.163H296.206C287.874 135.163 280.858 141.523 280.858 149.524V167.782H287.874V149.524C287.874 144.805 292.04 140.907 297.083 140.907ZM263.536 167.782C255.862 167.782 249.504 162.038 249.504 154.652V135.163H256.52V154.652C256.52 158.345 259.59 161.217 263.536 161.217H269.676V135.163H276.692V167.782H263.536ZM310.238 153.627H320.982V161.422H310.238C308.046 161.422 306.073 159.781 306.073 157.524C306.073 155.268 307.827 153.627 310.238 153.627ZM311.335 140.907H303.441L309.581 135.163H312.65C320.982 135.163 327.999 141.523 327.999 149.524V167.782H309.8C303.88 167.782 299.056 163.268 299.056 157.729C299.056 152.191 303.88 147.677 309.8 147.677H320.763C319.667 143.574 315.939 140.702 311.335 140.702V140.907ZM227.797 134.343C217.711 134.343 209.599 141.933 209.599 151.37C209.599 160.807 217.711 168.397 227.797 168.397C237.883 168.397 245.996 160.807 245.996 151.37C245.996 141.933 237.883 134.343 227.797 134.343ZM227.797 162.243C221.439 162.243 216.396 157.524 216.396 151.575C216.396 145.626 221.439 140.907 227.797 140.907C234.156 140.907 239.199 145.626 239.199 151.575C239.199 157.524 234.156 162.243 227.797 162.243ZM188.55 135.163L153.688 167.782H164.212L181.533 151.575V167.782L199.074 151.37V167.782H206.09V135.163L188.55 151.575V135.369V135.163Z" fill="white"/>
<path fill-rule="evenodd" clip-rule="evenodd" d="M121.894 104.802C123.867 103.161 126.937 102.136 129.787 102.136C136.584 102.136 140.75 106.649 140.75 112.188V126.958H137.023V112.598C137.023 108.7 134.611 105.623 129.568 105.623C124.525 105.623 121.675 108.29 121.675 112.598V126.958H117.947V102.546H121.675V104.802H121.894ZM284.804 105.828C282.392 103.572 278.884 102.136 275.156 102.136C271.429 102.136 267.921 103.572 265.509 105.828C263.097 108.085 261.562 111.367 261.562 114.855C261.562 118.342 263.097 121.624 265.509 123.881C267.921 126.138 271.429 127.574 275.156 127.574C278.884 127.574 282.392 126.138 284.804 123.881C287.215 121.624 288.75 118.342 288.75 114.855C288.75 111.367 287.215 108.085 284.804 105.828ZM275.375 105.623C278.007 105.623 280.638 106.649 282.392 108.29C284.146 109.931 285.242 112.188 285.242 114.855C285.242 117.521 284.146 119.778 282.392 121.419C280.638 123.06 278.226 124.086 275.375 124.086C272.525 124.086 270.113 123.06 268.359 121.419C266.605 119.778 265.509 117.521 265.509 114.855C265.509 112.188 266.605 109.931 268.359 108.29C270.113 106.649 272.525 105.623 275.375 105.623ZM73.6571 105.623C75.1919 105.623 76.5074 105.828 77.6037 106.444C78.7 106.854 79.7963 107.674 80.6734 108.495H85.2778C84.1815 106.854 82.6467 105.213 80.8926 104.187C78.7 102.956 76.2882 102.136 73.4378 102.136C70.5875 102.136 66.2023 103.572 63.7904 105.828C61.3786 108.085 59.8438 111.367 59.8438 114.855C59.8438 118.342 61.3786 121.624 63.7904 123.881C66.2023 126.138 69.7104 127.574 73.4378 127.574C77.1652 127.574 79.1386 126.753 81.3311 125.112C83.3045 123.881 84.8393 122.035 85.9356 119.983H81.5504C80.6734 121.214 79.5771 122.035 78.2615 122.855C76.7267 123.676 75.1919 124.086 73.4378 124.086C70.8067 124.086 68.1756 123.06 66.4215 121.419C64.6675 119.778 63.5712 117.521 63.5712 114.855C63.5712 112.188 64.6675 109.931 66.4215 108.29C68.1756 106.649 70.5875 105.623 73.4378 105.623H73.6571ZM110.931 105.828C108.519 103.572 105.011 102.136 101.284 102.136C97.5563 102.136 94.0482 103.572 91.6363 105.828C89.2245 108.085 87.6897 111.367 87.6897 114.855C87.6897 118.342 89.2245 121.624 91.6363 123.881C94.0482 126.138 97.5563 127.574 101.284 127.574C105.011 127.574 108.519 126.138 110.931 123.881C113.343 121.624 114.878 118.342 114.878 114.855C114.878 111.367 113.343 108.085 110.931 105.828ZM101.284 105.623C103.915 105.623 106.546 106.649 108.3 108.29C110.054 109.931 111.15 112.188 111.15 114.855C111.15 117.521 110.054 119.778 108.3 121.419C106.546 123.06 104.134 124.086 101.284 124.086C98.4334 124.086 96.0215 123.06 94.2674 121.419C92.5134 119.778 91.4171 117.521 91.4171 114.855C91.4171 112.188 92.5134 109.931 94.2674 108.29C96.0215 106.649 98.4334 105.623 101.284 105.623ZM201.704 102.546V126.958H205.87V102.546H201.704ZM228.454 129.42H215.518V131.882H228.454V129.42ZM222.534 105.623C224.069 105.623 225.384 105.828 226.481 106.444C227.577 106.854 228.673 107.674 229.55 108.495H234.155C233.058 106.854 231.524 105.213 229.77 104.187C227.577 102.956 225.165 102.136 222.315 102.136C219.464 102.136 215.079 103.572 212.667 105.828C210.256 108.085 208.721 111.367 208.721 114.855C208.721 118.342 210.256 121.624 212.667 123.881C215.079 126.138 218.587 127.574 222.315 127.574C226.042 127.574 228.016 126.753 230.208 125.112C232.181 123.881 233.716 122.035 234.813 119.983H230.427C229.55 121.214 228.454 122.035 227.138 122.855C225.604 123.676 224.069 124.086 222.315 124.086C219.684 124.086 217.053 123.06 215.298 121.419C213.544 119.778 212.448 117.521 212.448 114.855C212.448 112.188 213.544 109.931 215.298 108.29C217.053 106.649 219.464 105.623 222.315 105.623H222.534ZM256.3 98.4429H243.364V100.905H256.3V98.4429ZM245.118 115.88H254.546V123.266H245.118C242.925 123.266 241.171 121.624 241.171 119.573C241.171 117.521 242.925 115.88 245.118 115.88ZM246.214 106.033C251.257 106.033 254.546 108.495 254.546 112.598H244.898C242.706 112.598 240.733 113.419 239.417 114.649C238.101 115.88 237.224 117.727 237.224 119.778C237.224 121.83 238.101 123.471 239.417 124.907C240.733 126.138 242.706 126.958 244.898 126.958H258.712V113.008C258.712 106.444 253.669 102.341 247.091 102.341H245.556L241.829 105.828H246.214V106.033ZM157.633 105.623C159.168 105.623 160.484 105.828 161.58 106.444C162.676 106.854 163.773 107.674 164.65 108.495H169.254C168.158 106.854 166.623 105.213 164.869 104.187C162.676 102.956 160.264 102.136 157.414 102.136C154.564 102.136 150.179 103.572 147.767 105.828C145.355 108.085 143.82 111.367 143.82 114.855C143.82 118.342 145.355 121.624 147.767 123.881C150.179 126.138 153.687 127.574 157.414 127.574C161.141 127.574 163.115 126.753 165.307 125.112C167.281 123.881 168.816 122.035 169.912 119.983H165.527C164.65 121.214 163.553 122.035 162.238 122.855C160.703 123.676 159.168 124.086 157.414 124.086C154.783 124.086 152.152 123.06 150.398 121.419C148.644 119.778 147.547 117.521 147.547 114.855C147.547 112.188 148.644 109.931 150.398 108.29C152.152 106.649 154.564 105.623 157.414 105.623H157.633ZM185.041 105.623C187.672 105.623 190.303 106.649 192.057 108.29C193.153 109.316 194.03 110.752 194.469 112.188H175.613C176.051 110.752 176.928 109.316 178.024 108.29C179.778 106.649 182.19 105.623 185.041 105.623ZM194.907 115.47H198.635C198.635 115.265 198.635 115.06 198.635 114.855C198.635 111.367 197.1 108.085 194.688 105.828C192.276 103.572 188.768 102.136 185.041 102.136C181.313 102.136 177.805 103.572 175.393 105.828C172.981 108.085 171.447 111.367 171.447 114.855C171.447 118.342 172.981 121.624 175.393 123.881C177.805 126.138 181.313 127.574 185.041 127.574C188.768 127.574 192.276 126.138 194.688 123.881C195.784 122.855 196.881 121.419 197.538 120.188H193.373C192.934 120.599 192.715 121.009 192.276 121.419C190.522 123.06 188.11 124.086 185.26 124.086C182.41 124.086 179.998 123.06 178.244 121.419C176.709 119.983 175.613 117.932 175.393 115.675H195.127L194.907 115.47Z" fill="white"/>
<path fill-rule="evenodd" clip-rule="evenodd" d="M119.484 94.5451H118.168V85.5186H119.484V94.5451ZM133.955 94.5451V85.5186H135.709L140.313 92.9039V85.5186H141.409V94.5451H139.875L135.051 86.9546V94.5451H133.955ZM156.977 91.8782C156.977 92.4936 156.977 92.9039 157.635 93.109C158.073 93.3142 158.512 93.5193 159.389 93.5193C160.266 93.5193 160.704 93.5193 161.143 93.109C161.581 92.9039 161.801 92.4936 161.801 91.8782C161.801 91.2627 161.143 90.6473 159.608 90.237C159.608 90.237 159.389 90.237 159.169 90.237C159.169 90.237 159.169 90.237 158.731 90.237C157.854 90.237 157.196 89.8267 156.977 89.6215C156.758 89.6215 156.319 89.2113 156.319 88.801C156.319 88.3907 156.1 88.1855 156.1 87.7752C156.1 86.9546 156.319 86.3392 156.977 85.9289C157.635 85.5186 158.512 85.3135 159.608 85.3135C160.704 85.3135 161.362 85.3135 162.02 85.9289C162.678 86.3392 162.897 86.9546 162.897 87.5701H161.581C161.581 87.1598 161.581 86.7495 160.924 86.5444C160.485 86.3392 160.046 86.1341 159.389 86.1341C158.731 86.1341 158.292 86.1341 157.854 86.5444C157.415 86.7495 157.196 87.1598 157.196 87.5701C157.196 87.9804 157.854 88.5958 159.389 89.0061H159.827C161.143 89.4164 162.02 89.6215 162.458 90.0318C162.897 90.4421 163.116 90.8524 163.116 91.673C163.116 92.4936 162.897 93.109 162.239 93.7245C161.581 94.1348 160.704 94.5451 159.608 94.5451C158.512 94.5451 157.415 94.3399 156.977 93.9296C156.319 93.5193 156.1 92.9039 156.1 91.8782H157.415H156.977ZM180.438 94.5451H179.122V86.7495H175.833V85.7238H183.507V86.7495H180.218V94.5451H180.438ZM198.417 94.5451H197.101V85.5186H198.417V94.5451ZM216.396 94.5451H215.08V86.7495H211.792V85.7238H219.466V86.7495H216.177V94.5451H216.396ZM233.06 85.5186H234.375V90.8524C234.375 91.8782 234.375 92.4936 235.033 92.9039C235.472 93.3142 236.129 93.5193 237.006 93.5193C237.883 93.5193 238.541 93.3142 238.98 92.9039C239.418 92.4936 239.638 91.673 239.638 90.6473V85.5186H240.953V91.4679C240.953 92.4936 240.515 93.3142 239.857 93.9296C239.199 94.5451 238.103 94.7502 237.006 94.7502C235.91 94.7502 234.814 94.5451 234.156 93.9296C233.498 93.3142 233.279 92.4936 233.279 91.2627V85.7238L233.06 85.5186ZM258.713 94.5451H257.398V86.7495H254.109V85.7238H261.783V86.7495H258.494V94.5451H258.713ZM275.815 90.0318C275.815 91.2627 276.035 92.0833 276.692 92.6987C277.131 93.3142 278.008 93.7245 278.885 93.7245C279.762 93.7245 280.639 93.3142 281.077 92.6987C281.516 92.0833 281.955 91.2627 281.955 90.0318C281.955 88.801 281.735 87.9804 281.077 87.3649C280.639 86.7495 279.762 86.3392 278.885 86.3392C278.008 86.3392 277.131 86.7495 276.692 87.3649C276.254 87.9804 275.815 88.801 275.815 90.0318ZM274.28 90.0318C274.28 88.5958 274.719 87.3649 275.377 86.5444C276.035 85.7238 277.131 85.3135 278.666 85.3135C280.2 85.3135 281.077 85.7238 281.955 86.5444C282.612 87.3649 283.051 88.3907 283.051 90.0318C283.051 91.673 282.612 92.6987 281.955 93.5193C281.297 94.3399 280.2 94.7502 278.666 94.7502C277.131 94.7502 276.254 94.3399 275.377 93.5193C274.5 92.6987 274.28 91.673 274.28 90.0318Z" fill="white"/>
<path fill-rule="evenodd" clip-rule="evenodd" d="M93.6098 4.48569C93.6098 4.48569 93.8291 4.0754 94.0484 4.28055C94.0484 4.28055 94.4869 4.48569 94.2676 4.69084C93.6099 6.94745 92.9521 8.79377 92.2943 10.6401C93.1713 10.6401 94.0484 10.4349 94.9254 9.61435C96.0217 8.79377 96.8987 7.35774 97.7758 5.71657C97.7758 5.71657 97.995 5.51142 98.2143 5.71657C98.2143 5.71657 98.4336 5.92172 98.2143 6.12686C97.3373 7.97318 96.4602 9.20406 95.3639 10.2298C94.9254 10.6401 94.7061 10.8452 94.2676 11.0504C95.3639 11.0504 96.241 11.0504 97.3373 10.6401C98.8721 10.0246 100.407 9.20406 101.503 7.76803C101.503 7.76803 101.722 7.76803 101.942 7.76803C101.942 7.76803 101.942 7.97318 101.942 8.17833C100.845 9.61435 99.0913 10.6401 97.3373 11.2555C95.5832 11.871 93.6098 11.871 91.8558 11.2555C89.8824 16.179 87.6899 19.6665 85.278 22.3334C83.7432 24.1797 81.9891 25.6158 80.4543 26.8466C80.4543 27.0518 80.235 27.2569 79.7965 27.6672C79.358 28.2827 78.481 28.8981 77.3847 29.7187C76.5076 30.3341 75.4113 30.9496 74.7536 31.3599C74.0958 31.7702 73.438 31.7702 73.2188 31.565C73.2188 31.565 73.2187 30.9496 73.8765 30.3341C74.315 29.7187 75.1921 29.1033 76.2884 28.2827C77.1654 27.6672 78.2617 27.0518 78.9195 26.6415C79.1388 26.6415 79.5773 26.4364 79.7965 26.4364C81.3313 25.2055 83.0854 23.7694 84.6202 21.9231C87.0321 19.2562 89.2247 15.7687 91.198 11.0504C89.6632 10.4349 88.1284 9.61435 87.2513 8.58862C85.9358 7.35774 85.278 5.71657 85.0587 3.87025C85.0587 3.87025 85.0587 3.45996 85.278 3.45996C85.278 3.45996 85.7165 3.45996 85.7165 3.66511C85.9358 5.30628 86.8128 6.94745 87.9091 7.97318C88.5669 8.58862 89.4439 9.20406 90.321 9.8195C90.1017 9.4092 89.8824 8.99891 89.6632 8.58862C89.2247 7.35774 89.0054 5.51142 89.2247 3.66511C89.2247 3.66511 89.2247 3.45996 89.6632 3.45996C89.6632 3.45996 89.8824 3.45996 89.8824 3.87025C89.6632 5.71657 89.8824 7.35774 90.321 8.58862C90.5402 9.40921 91.198 10.2298 91.6365 10.4349C92.2943 8.58862 92.9521 6.7423 93.6098 4.48569Z" fill="white"/>
<path fill-rule="evenodd" clip-rule="evenodd" d="M142.288 15.7684C142.288 15.7684 142.507 15.5632 142.727 15.7684C142.727 15.7684 142.946 15.9735 142.727 16.1787C141.849 17.8198 141.411 19.2559 141.192 20.4867C141.192 21.1022 141.192 21.7176 141.411 22.3331C142.727 21.1022 144.261 19.6661 145.796 18.025C145.796 18.025 146.015 18.025 146.235 18.025C146.235 18.025 146.235 18.2301 146.235 18.4353C144.7 20.0764 143.165 21.5125 141.849 22.9485C141.849 22.9485 141.849 22.9485 142.069 23.1536C142.727 23.5639 143.823 23.5639 145.138 23.1536C146.454 22.7433 147.769 21.9228 149.085 20.4867H149.524V20.897C148.208 22.3331 146.673 23.1536 145.358 23.5639C144.919 23.5639 144.481 23.7691 144.042 23.9742C144.919 24.3845 146.015 24.5897 146.892 24.5897C148.647 24.5897 150.181 24.1794 151.716 23.3588H152.155V23.7691C150.62 24.5897 148.647 25.2051 146.892 25C145.138 25 143.384 24.3845 141.849 23.3588C141.849 23.3588 141.63 23.3588 141.411 23.1536C137.464 26.8463 133.956 29.308 131.106 30.9492C129.132 31.9749 127.378 32.7955 125.624 33.411C125.624 33.411 125.186 33.8212 124.747 34.2315C124.089 34.6418 122.993 35.0521 121.897 35.4624C120.801 35.8727 119.704 36.0779 119.047 36.283C118.169 36.283 117.731 36.283 117.512 36.283C117.512 36.0779 117.731 35.6676 118.608 35.2573C119.266 34.847 120.362 34.4367 121.458 34.0264C122.555 33.6161 123.651 33.411 124.309 33.2058C124.747 33.2058 124.967 33.2058 125.186 33.2058C126.94 32.5904 128.913 31.7698 130.887 30.5389C133.956 28.8977 137.245 26.436 141.192 22.7433C140.095 21.7176 139.218 20.6919 138.78 19.461C138.122 17.8198 138.122 16.1787 138.561 14.3323C138.561 14.3323 138.78 14.1272 138.999 14.1272C139.218 14.1272 139.218 14.3323 139.218 14.5375C138.78 16.1787 138.999 17.8198 139.438 19.2559C139.876 20.0764 140.315 20.897 140.972 21.7176C140.972 21.3073 140.972 20.897 140.972 20.4867C140.972 19.0507 141.63 17.6147 142.507 15.9735L142.288 15.7684Z" fill="white"/>
<path fill-rule="evenodd" clip-rule="evenodd" d="M179.78 34.2312C179.78 34.026 180.219 34.026 180.438 34.2312C180.657 34.2312 180.657 34.6414 180.438 34.8466C178.684 37.1032 177.587 39.1547 177.149 41.001C176.93 42.437 177.149 43.6679 177.587 44.4885C179.78 42.6422 182.192 40.5907 184.604 38.1289C184.604 38.1289 185.042 38.1289 185.261 38.1289C185.261 38.1289 185.261 38.5392 185.261 38.7444C182.85 41.2061 180.438 43.2576 178.245 45.1039C179.122 45.7194 180.657 45.9245 182.411 45.7194C184.384 45.3091 186.577 44.2833 188.989 42.6422C189.208 42.6422 189.647 42.6422 189.647 42.6422C189.647 42.8473 189.647 43.2576 189.647 43.2576C187.235 44.8988 184.823 46.1296 182.63 46.5399C181.973 46.5399 181.315 46.5399 180.657 46.5399C181.973 47.1554 183.288 47.7708 184.823 47.976C187.235 48.3863 189.866 48.1811 192.497 47.3605C192.716 47.3605 193.155 47.3605 193.155 47.5657C193.155 47.7708 193.155 48.1811 192.936 48.1811C190.304 49.2068 187.454 49.412 184.823 49.0017C182.192 48.5914 179.78 47.3605 177.807 45.5142C171.448 50.848 165.747 53.9252 160.485 55.3612C156.1 56.5921 151.934 56.5921 147.987 55.5664C147.549 55.5664 147.33 55.5664 146.672 55.5664C145.576 55.5664 143.822 54.9509 142.287 54.3355C140.533 53.7201 139.217 53.1046 138.121 52.4892C137.024 51.8737 136.586 51.2583 136.586 51.0532C136.586 50.6429 137.463 50.6429 138.779 51.0532C139.875 51.0532 141.629 51.6686 143.164 52.284C144.918 52.8995 146.233 53.5149 147.33 54.1304C147.987 54.5406 148.426 54.7458 148.645 54.9509C152.373 55.7715 156.319 55.5664 160.266 54.5406C165.309 53.1046 170.79 50.0274 177.149 44.8988C175.395 43.0524 174.299 41.001 173.86 38.5392C173.421 36.0775 173.641 33.4106 174.737 30.9488C174.737 30.7437 175.176 30.5385 175.395 30.7437C175.614 30.7437 175.833 31.154 175.614 31.3591C174.518 33.6157 174.299 36.0775 174.956 38.5392C175.176 39.7701 175.833 41.2061 176.491 42.437C176.491 41.8216 176.491 41.2061 176.491 40.5907C176.93 38.5392 178.026 36.2826 179.999 34.026L179.78 34.2312Z" fill="white"/>
<path fill-rule="evenodd" clip-rule="evenodd" d="M257.4 13.1017C257.4 12.6914 257.838 12.4862 258.277 12.6914C258.715 12.6914 258.935 13.1017 258.715 13.512C257.619 17.4098 257.4 21.1024 257.838 23.9744C258.277 26.2311 259.154 27.8722 260.689 28.898C262.662 25.0002 264.855 20.6921 266.828 15.9737C266.828 15.5634 267.486 15.3583 267.924 15.5634C268.363 15.5634 268.582 16.1789 268.363 16.5892C266.39 21.3075 264.197 25.6156 262.224 29.5134C263.978 29.9237 266.17 29.5134 268.582 28.0774C271.213 26.4362 273.844 23.7693 276.037 20.2818C276.037 19.8715 276.695 19.8715 277.133 20.0767C277.572 20.2818 277.572 20.6921 277.352 21.1024C274.941 24.795 272.09 27.6671 269.459 29.3082C268.582 29.9237 267.486 30.334 266.609 30.7443C268.801 31.1546 271.213 31.1546 273.406 30.7443C277.133 30.1288 280.861 28.2825 283.711 25.6156C283.93 25.4105 284.588 25.4105 284.807 25.6156C285.027 25.8208 285.027 26.4362 284.807 26.6413C281.738 29.5134 277.791 31.3597 273.625 31.9752C269.678 32.5906 265.512 32.3854 261.566 30.7443C255.646 41.617 249.507 49.0023 242.929 53.9258C237.447 57.8236 231.747 60.0802 225.388 61.1059C224.95 61.1059 224.292 61.5162 223.415 61.7214C221.661 62.1317 219.03 62.3368 216.398 62.3368C213.548 62.3368 211.136 62.3368 209.382 61.9265C207.628 61.7214 206.312 61.1059 206.312 60.6956C206.312 60.2853 207.409 59.6699 209.163 59.2596C210.917 58.8493 213.548 58.6442 216.179 58.6442C219.03 58.6442 221.441 58.6442 223.195 59.0545C224.292 59.0545 224.95 59.4648 225.607 59.6699C231.527 58.6442 236.79 56.5927 241.832 52.9001C248.191 48.1817 254.111 41.0016 260.031 30.334C256.523 28.6928 253.453 26.2311 251.48 23.1539C249.287 19.8715 247.972 15.9737 247.972 11.8708C247.972 11.4605 248.41 11.2554 248.849 11.2554C249.287 11.2554 249.507 11.6657 249.507 12.076C249.507 15.9737 250.603 19.4612 252.795 22.5384C254.111 24.3847 255.646 26.0259 257.4 27.2568C256.961 26.4362 256.742 25.4105 256.523 24.3847C255.865 21.3075 256.084 17.4098 257.4 13.3068V13.1017Z" fill="white"/>
<path fill-rule="evenodd" clip-rule="evenodd" d="M52.3902 39.1553C51.9517 39.1553 51.5132 39.5656 51.2939 40.181C51.2939 39.1553 50.8554 38.5399 50.6361 37.9244V12.8966C53.925 12.8966 56.9946 11.8708 59.6257 10.2297C62.4761 8.58849 64.6687 5.92159 65.9843 3.04954C65.9843 2.63925 65.9843 2.4341 65.5457 2.22895C65.1072 2.22895 64.888 2.22895 64.6687 2.63925C63.3531 5.5113 61.3798 7.76791 58.7487 9.40908C57.4332 10.2297 55.6791 11.0502 54.1443 11.4605C54.5828 11.0502 55.0213 10.4348 55.4598 9.81937C56.9946 7.76791 58.0909 4.89586 58.5294 1.40837C58.5294 0.998077 58.5294 0.79293 57.8717 0.587784C57.4332 0.587784 57.2139 0.587783 56.9946 1.20322C56.5561 4.48556 55.4598 7.15247 54.1443 8.99879C53.048 10.64 51.7324 11.4605 50.4169 11.8708V0.79293C50.4169 0.382637 50.1976 0.17749 49.7591 0.17749C49.3206 0.17749 49.1013 0.382637 49.1013 0.79293V11.8708C47.7857 11.6657 46.4702 10.64 45.3739 8.99879C44.0583 7.15247 42.962 4.28042 42.5235 1.20322C42.5235 0.792929 42.085 0.587784 41.6465 0.587784C41.208 0.587784 40.9887 0.998077 40.9887 1.40837C41.4272 4.89586 42.5235 7.76791 44.0583 9.81937C44.4969 10.4348 44.9354 11.0502 45.3739 11.4605C43.6198 11.0502 42.085 10.4348 40.7695 9.40908C38.1383 7.76791 36.165 5.5113 34.8495 2.63925C34.8495 2.22895 34.4109 2.22895 33.9724 2.22895C33.5339 2.22895 33.5339 2.63925 33.5339 3.04954C34.8495 6.12674 37.0421 8.58849 39.8924 10.2297C42.5235 11.8708 45.5932 12.8966 48.882 12.8966V37.9244C48.6628 38.3347 48.4435 39.1553 48.2243 40.181C47.7857 39.7707 47.3472 39.3605 47.128 39.1553L40.7695 24.7951C42.3043 24.1796 43.6198 22.9487 44.7161 21.7179C45.8124 20.2818 46.2509 18.4355 46.2509 16.7943C46.2509 16.5892 46.2509 16.3841 45.8124 16.3841C45.3739 16.3841 45.3739 16.3841 45.3739 16.7943C45.3739 18.4355 44.9354 20.0767 43.8391 21.3076C43.4006 21.923 42.7428 22.5384 42.3043 22.9487C42.3043 22.7436 42.3043 22.3333 42.5235 22.1282C42.7428 20.6921 42.5235 19.051 42.3043 17.2046C42.3043 16.9995 42.085 16.7943 41.6465 16.7943C41.4272 16.7943 41.208 16.9995 41.208 17.4098C41.6465 19.051 41.8658 20.6921 41.4272 21.923C41.4272 22.9487 40.7695 23.5642 40.3309 23.9745L37.9191 18.4355C37.9191 18.2304 37.4806 18.0252 37.2613 18.2304C37.0421 18.2304 36.8228 18.6407 37.0421 18.8458L39.4539 24.3848C38.7961 24.3848 37.9191 24.3848 37.0421 23.7693C35.9458 23.1539 34.8495 21.923 33.7532 20.2818C33.7532 20.0767 33.3146 20.0767 33.0954 20.2818C32.8761 20.2818 32.8761 20.6921 33.0954 20.8973C34.1917 22.5384 35.288 23.7693 36.6035 24.5899C36.8228 24.5899 37.0421 24.7951 37.2613 25.0002C36.3843 25.0002 35.7265 25.0002 34.8495 25.0002C33.0954 24.5899 31.5606 23.9745 30.4643 22.7436C30.4643 22.7436 30.0258 22.7436 29.8065 22.7436C29.8065 22.7436 29.8065 23.1539 29.8065 23.359C31.1221 24.5899 32.8761 25.4105 34.8495 25.8208C36.6035 26.2311 38.3576 26.0259 39.8924 25.4105L46.2509 39.7707C46.2509 40.181 46.2509 40.5913 46.2509 41.2068C45.3739 40.5913 44.7161 40.181 44.0583 40.181L25.2021 22.5384C27.3947 20.2818 28.9295 17.6149 29.368 14.7429C30.0258 11.6657 29.8065 8.38335 28.2717 5.5113C28.2717 5.101 27.8332 5.101 27.3947 5.101C26.9561 5.101 26.9561 5.5113 26.9561 5.92159C28.2717 8.79364 28.4909 11.6657 27.8332 14.5377C27.3947 16.1789 26.9561 17.6149 26.0791 19.051C26.0791 18.4355 26.0791 17.6149 25.8598 16.9995C25.4213 14.5377 23.8865 11.8708 21.6939 8.99879C21.4747 8.79364 21.0361 8.58849 20.8169 8.99879C20.5976 9.20393 20.3784 9.61422 20.8169 9.81937C23.0095 12.4863 24.325 14.948 24.7635 17.2046C25.2021 19.051 24.9828 20.487 24.325 21.7179L15.9932 13.9223C15.7739 13.7172 15.3354 13.7172 15.1161 13.9223C14.8969 14.1274 14.8969 14.5377 15.1161 14.7429L23.448 22.5384C22.3517 23.359 20.5976 23.359 18.6243 22.9487C16.2124 22.5384 13.3621 21.3076 10.731 19.2561C10.5117 19.051 10.0732 19.2561 9.85392 19.2561C9.63466 19.4613 9.85392 19.8715 9.85392 20.0767C12.7043 22.1282 15.7739 23.5642 18.405 23.9745C19.2821 23.9745 19.9398 24.1796 20.5976 24.1796C19.0628 25.0002 17.528 25.6156 15.7739 25.8208C12.7043 26.4362 9.63466 26.0259 6.56504 25.0002C6.12652 25.0002 5.90726 25.0002 5.688 25.4105C5.688 25.8208 5.688 26.0259 6.12652 26.2311C9.41541 27.462 12.7043 27.6671 15.9932 27.0517C19.0628 26.4362 21.9132 25.2053 24.325 23.1539L43.1813 40.7965C43.1813 41.4119 43.8391 42.0274 44.2776 42.8479C43.6198 42.8479 42.962 42.8479 42.7428 42.8479L27.3947 36.8987C28.0524 35.2575 28.0524 33.6163 27.8332 32.1803C27.3947 30.5392 26.5176 28.898 25.2021 27.462C25.2021 27.462 24.7635 27.462 24.5443 27.462C24.5443 27.462 24.5443 27.8723 24.5443 28.0774C25.8598 29.3083 26.5176 30.7443 26.9561 32.1803C26.9561 33.0009 26.9561 33.6164 26.9561 34.4369C26.9561 34.2318 26.7369 34.0266 26.5176 33.8215C25.6406 32.5906 24.325 31.5649 22.571 30.5392C22.3517 30.5392 22.1324 30.5392 21.9132 30.5392C21.9132 30.7443 21.9132 30.9494 21.9132 31.1546C23.6672 31.9752 24.7635 33.2061 25.6406 34.2318C26.2984 35.0524 26.5176 35.873 26.2984 36.4884L20.3784 34.2318C20.1591 34.2318 19.9398 34.2318 19.7206 34.4369C19.7206 34.6421 19.7206 34.8472 19.9398 35.0524L25.8598 37.309C25.4213 37.9244 24.7635 38.1296 23.6672 38.3347C22.3517 38.5399 20.5976 38.3347 18.8435 38.1296C18.6243 38.1296 18.405 38.1296 18.1858 38.5399C18.1858 38.745 18.1858 38.9502 18.6243 39.1553C20.5976 39.5656 22.5709 39.7707 23.8865 39.3604C24.1058 39.3604 24.5443 39.3605 24.7635 39.1553C24.325 39.7707 23.6672 40.181 23.0095 40.5913C21.6939 41.4119 19.9398 42.0274 18.1858 42.0274C17.9665 42.0274 17.7473 42.0274 17.7473 42.4376C17.7473 42.8479 17.7473 42.8479 18.1858 42.8479C20.1591 42.8479 21.9132 42.2325 23.448 41.4119C24.9828 40.5913 26.0791 39.3604 26.7369 37.7193L42.085 43.6685C42.085 44.0788 42.5235 44.4891 43.1813 44.6943C42.085 44.6943 41.208 45.1045 40.7695 45.3097H14.0198C14.0198 42.2325 12.9236 39.3605 11.1695 36.8987C9.41541 34.2318 6.56504 32.1803 3.49541 30.9494C3.05689 30.9494 2.83763 30.9494 2.61837 31.3597C2.61837 31.77 2.61837 31.9752 3.05689 32.1803C6.12652 33.4112 8.53837 35.2575 10.2924 37.7193C11.1695 38.9502 12.0465 40.5913 12.485 42.0274C12.0465 41.6171 11.3887 41.2068 10.731 40.7965C8.53837 39.3604 5.46874 38.3347 1.74134 37.9244C1.30282 37.9244 1.08356 37.9244 0.8643 38.5399C0.8643 38.9502 0.864301 39.1553 1.52208 39.3604C5.03022 39.7707 7.88059 40.7965 9.85392 42.0274C11.608 43.0531 12.485 44.284 12.9236 45.5148H1.08356C0.645041 45.5148 0.425781 45.72 0.425781 46.1303C0.425781 46.5406 0.645041 46.7457 1.08356 46.7457H12.9236C12.7043 47.9766 11.608 49.2075 9.85392 50.2332C7.88059 51.4641 4.81096 52.4898 1.52208 52.9001C1.08356 52.9001 0.8643 53.3104 0.8643 53.7207C0.8643 54.131 1.30282 54.3361 1.74134 54.3361C5.46874 53.9258 8.53837 52.9001 10.731 51.4641C11.3887 51.0538 12.0465 50.6435 12.485 50.2332C12.0465 51.8744 11.3887 53.3104 10.2924 54.5413C8.53837 57.003 6.12652 58.8494 3.05689 60.0802C2.61837 60.0802 2.61837 60.4905 2.61837 60.9008C2.61837 61.3111 3.05689 61.3111 3.49541 61.3111C6.7843 60.0802 9.41541 58.0288 11.1695 55.3619C12.9236 52.9001 14.0198 50.0281 14.0198 46.9509H40.7695C41.208 47.156 42.085 47.3612 43.1813 47.5663C42.7428 47.9766 42.3043 48.3869 42.085 48.592L26.7369 54.5413C26.0791 53.1053 24.7635 51.8744 23.448 50.8486C21.9132 49.8229 19.9398 49.4126 18.1858 49.4126C17.9665 49.4126 17.7473 49.4126 17.7473 49.8229C17.7473 50.2332 17.7473 50.2332 18.1858 50.2332C19.9398 50.2332 21.6939 50.6435 23.0095 51.6692C23.6672 52.0795 24.325 52.695 24.7635 53.1053C24.5443 53.1053 24.1058 53.1053 23.8865 52.9001C22.3517 52.695 20.5976 52.9001 18.6243 53.1053C18.405 53.1053 18.1858 53.3104 18.1858 53.7207C18.1858 53.9258 18.405 54.131 18.8435 54.131C20.5976 53.7207 22.3517 53.5156 23.6672 53.9258C24.7635 53.9258 25.4213 54.5413 25.8598 54.9516L19.9398 57.2082C19.7206 57.2082 19.5013 57.6185 19.7206 57.8236C19.9398 58.0288 20.1591 58.2339 20.3784 58.0288L26.2984 55.7722C26.2984 56.3876 26.2984 57.2082 25.6406 58.0288C24.9828 59.0545 23.6672 60.0802 21.9132 61.106C21.6939 61.106 21.6939 61.5163 21.9132 61.7214C21.9132 61.9266 22.3517 61.9266 22.571 61.7214C24.325 60.6957 25.6406 59.6699 26.5176 58.4391C26.5176 58.2339 26.7369 58.0288 26.9561 57.8236C26.9561 58.6442 26.9561 59.2597 26.9561 60.0802C26.5176 61.7214 25.8598 63.1574 24.5443 64.1832C24.5443 64.1832 24.5443 64.5935 24.5443 64.7986C24.5443 64.7986 24.9828 64.7986 25.2021 64.7986C26.5176 63.5677 27.3947 61.9266 27.8332 60.0802C28.2717 58.4391 28.0524 56.7979 27.3947 55.3619L42.7428 49.4126C43.1813 49.4126 43.6198 49.4126 44.2776 49.4126C43.6198 50.2332 43.1813 50.8486 43.1813 51.4641L24.325 69.1067C21.9132 67.0552 19.0628 65.6192 15.9932 65.2089C12.7043 64.5935 9.19615 64.7986 6.12652 66.2346C5.688 66.2346 5.688 66.6449 5.688 67.0552C5.688 67.4655 6.12652 67.4655 6.56504 67.4655C9.63466 66.2346 12.7043 66.0295 15.7739 66.6449C17.528 67.0552 19.0628 67.4655 20.5976 68.2861C19.9398 68.2861 19.0628 68.2861 18.405 68.4912C15.7739 68.9015 12.9236 70.3376 9.85392 72.389C9.63466 72.5942 9.4154 73.0045 9.85392 73.2096C10.0732 73.4147 10.5117 73.6199 10.731 73.2096C13.5813 71.1581 16.2124 69.9273 18.6243 69.517C20.5976 69.1067 22.1324 69.3118 23.448 69.9273L15.1161 77.7228C14.8969 77.928 14.8969 78.3383 15.1161 78.5434C15.3354 78.7486 15.7739 78.7486 15.9932 78.5434L24.325 70.7478C25.2021 71.7736 25.2021 73.4147 24.7635 75.2611C24.325 77.5177 23.0095 80.1846 20.8169 82.6463C20.5976 82.8515 20.8169 83.2618 20.8169 83.4669C21.0361 83.6721 21.4747 83.4669 21.6939 83.4669C23.8865 80.8 25.4213 77.928 25.8598 75.4662C25.8598 74.6456 26.0791 74.0302 26.0791 73.4147C26.9561 74.8508 27.6139 76.2868 27.8332 77.928C28.4909 80.8 28.0524 83.6721 26.9561 86.5441C26.9561 86.9544 26.9561 87.1596 27.3947 87.3647C27.8332 87.3647 28.0524 87.3647 28.2717 86.9544C29.5872 83.8772 29.8065 80.8 29.1487 77.7228C28.4909 74.8508 27.1754 72.1839 24.9828 69.9273L43.8391 52.2847C44.4969 52.2847 45.5932 51.4641 46.4702 50.6435L48.005 51.6692C48.005 52.695 48.4435 53.5155 48.6628 54.131V79.1589C45.3739 79.1589 42.3043 80.1846 39.6732 81.8258C36.8228 83.4669 34.6302 86.1338 33.3146 89.0059C33.3146 89.4162 33.3146 89.6213 33.7532 89.8265C34.1917 89.8265 34.4109 89.8265 34.6302 89.4162C35.9458 86.5441 37.9191 84.2875 40.5502 82.6463C41.8658 81.8258 43.6198 81.0052 45.1546 80.5949C44.7161 81.0052 44.2776 81.6206 43.8391 82.236C42.3043 84.2875 41.208 87.1596 40.7695 90.647C40.7695 91.0573 40.7695 91.2625 41.4272 91.4676C41.8658 91.4676 42.085 91.4676 42.3043 90.8522C42.7428 87.5699 43.8391 84.9029 45.1546 83.0566C46.2509 81.4155 47.5665 80.5949 48.882 80.1846V91.2625C48.882 91.6728 49.1013 91.8779 49.5398 91.8779C49.9783 91.8779 50.1976 91.6728 50.1976 91.2625V80.1846C51.5132 80.3897 52.8287 81.4155 53.925 83.0566C55.2406 84.9029 56.3369 87.775 56.7754 90.8522C56.7754 91.2625 57.2139 91.4676 57.6524 91.4676C58.0909 91.4676 58.3102 91.0573 58.3102 90.647C57.8717 87.1596 56.7754 84.2875 55.2406 82.236C54.802 81.6206 54.3635 81.0052 53.925 80.5949C55.6791 81.0052 57.2139 81.6206 58.5294 82.6463C61.1606 84.2875 63.1339 86.5441 64.4494 89.4162C64.4494 89.8265 64.888 89.8265 65.3265 89.8265C65.765 89.8265 65.765 89.4162 65.765 89.0059C64.4494 85.9287 62.2569 83.4669 59.4065 81.8258C56.7754 80.1846 53.7057 79.1589 50.4169 79.1589V54.131C50.6361 53.7207 50.8554 52.9001 51.0746 51.8744C51.5132 52.2847 51.9517 52.695 52.1709 52.9001L58.5294 67.2604C56.9946 67.8758 55.6791 69.1067 54.5828 70.3376C53.4865 71.7736 53.048 73.6199 53.048 75.2611C53.048 75.4662 53.048 75.6714 53.4865 75.6714C53.925 75.6714 53.925 75.6714 53.925 75.2611C53.925 73.6199 54.3635 71.9787 55.4598 70.7478C55.8983 70.1324 56.5561 69.517 56.9946 69.1067C56.9946 69.3118 56.9946 69.7221 56.7754 69.9273C56.5561 71.3633 56.7754 73.0045 56.9946 74.8508C56.9946 75.0559 57.2139 75.2611 57.6524 75.2611C57.8717 75.2611 58.0909 75.0559 58.0909 74.6456C57.6524 73.0045 57.4332 71.3633 57.8717 70.1324C57.8717 69.1067 58.5294 68.4912 58.968 68.0809L61.3798 73.6199C61.3798 73.825 61.8183 74.0302 62.0376 73.825C62.2569 73.825 62.4761 73.4147 62.2569 73.2096L59.845 67.6706C60.5028 67.6706 61.3798 67.6707 62.2569 68.2861C63.3531 68.9015 64.4494 70.1324 65.5457 71.7736C65.5457 71.9787 65.9843 71.9787 66.2035 71.7736C66.4228 71.7736 66.4228 71.3633 66.2035 71.1581C65.1072 69.517 64.0109 68.2861 62.6954 67.4655C62.4761 67.4655 62.2569 67.2604 62.0376 67.0552C62.9146 67.0552 63.5724 67.0552 64.4494 67.0552C66.2035 67.4655 67.7383 68.0809 68.8346 69.3118C68.8346 69.3118 69.2731 69.3118 69.4924 69.3118C69.4924 69.3118 69.4924 68.9015 69.4924 68.6964C68.1768 67.4655 66.4228 66.6449 64.4494 66.2346C62.6954 65.8243 60.9413 66.0295 59.4065 66.6449L53.048 52.2847C53.048 51.8744 53.048 51.4641 53.048 50.8486C53.925 51.4641 54.5828 51.8744 55.2406 51.8744L74.0968 69.517C71.9043 71.7736 70.3694 74.4405 69.9309 77.3125C69.2731 80.3897 69.4924 83.6721 70.808 86.5441C70.808 86.9544 71.2465 86.9544 71.685 86.9544C72.1235 86.9544 72.1235 86.5441 72.1235 86.1338C70.808 83.2618 70.5887 80.3897 71.2465 77.5177C71.685 75.8765 72.1235 74.4405 73.0006 73.0045C73.0006 73.6199 73.0005 74.4405 73.2198 75.0559C73.6583 77.5177 75.1931 80.1846 77.3857 83.0566C77.605 83.2618 78.0435 83.4669 78.2628 83.0566C78.482 82.8515 78.7013 82.4412 78.2628 82.236C76.0702 79.5691 74.7546 77.1074 74.3161 74.8508C73.8776 73.0045 74.0968 71.5684 74.7546 70.3376L83.0865 78.1331C83.3057 78.3383 83.7443 78.3383 83.9635 78.1331C84.1828 77.928 84.1828 77.5177 83.9635 77.3125L75.6317 69.517C76.728 68.6964 78.482 68.6964 80.4554 69.1067C82.8672 69.517 85.7176 70.7478 88.3487 72.7993C88.568 73.0045 89.0065 72.7993 89.2257 72.7993C89.445 72.5942 89.2257 72.1839 89.2257 71.9787C86.3754 69.9273 83.3057 68.4912 80.6746 68.0809C79.7976 68.0809 79.1398 67.8758 78.482 67.8758C80.0168 67.0552 81.5517 66.4398 83.3057 66.2346C86.3754 65.6192 89.445 66.0295 92.5146 67.0552C92.9531 67.0552 93.1724 67.0552 93.3916 66.6449C93.3916 66.2346 93.3916 66.0295 92.9531 65.8243C89.6642 64.5935 86.1561 64.3883 83.0865 64.7986C80.0168 65.414 77.1665 66.6449 74.7546 68.6964L55.8983 51.0538C55.8983 50.4384 55.2406 49.8229 54.802 49.0023C55.4598 49.0023 56.1176 49.0023 56.3369 49.0023L71.685 54.9516C71.0272 56.5927 71.0272 58.2339 71.2465 59.6699C71.685 61.3111 72.562 62.9523 73.8776 64.3883C73.8776 64.3883 74.3161 64.3883 74.5354 64.3883C74.5354 64.3883 74.5354 63.978 74.5354 63.7729C73.2198 62.542 72.562 61.106 72.1235 59.6699C72.1235 58.8494 72.1235 58.2339 72.1235 57.4133C72.1235 57.6185 72.3428 57.8236 72.562 58.0288C73.4391 59.2597 74.7546 60.2854 76.5087 61.3111C76.728 61.3111 76.9472 61.3111 77.1665 61.3111C77.1665 61.106 77.1665 60.9008 77.1665 60.6957C75.4124 59.8751 74.3161 58.6442 73.4391 57.6185C72.7813 56.7979 72.562 55.9773 72.7813 55.3619L78.7013 57.6185C78.9205 57.6185 79.1398 57.6185 79.3591 57.4133C79.3591 57.2082 79.3591 57.003 79.1398 56.7979L73.2198 54.5413C73.6583 53.9258 74.3161 53.7207 75.4124 53.5155C76.728 53.3104 78.482 53.5155 80.2361 53.7207C80.4554 53.7207 80.6746 53.7207 80.8939 53.3104C80.8939 53.1053 80.8939 52.9001 80.4554 52.695C78.482 52.2847 76.5087 52.0795 75.1931 52.4898C74.9739 52.4898 74.5354 52.4898 74.3161 52.695C74.7546 52.0795 75.4124 51.6692 76.0702 51.2589C77.3857 50.4384 79.1398 49.8229 80.8939 49.8229C81.1131 49.8229 81.3324 49.8229 81.3324 49.4126C81.3324 49.0023 81.3324 49.0023 80.8939 49.0023C78.9205 49.0023 77.1665 49.6178 75.6317 50.4384C74.0969 51.2589 73.0006 52.4898 72.3428 54.131L56.9946 48.1817C56.9946 47.7715 56.5561 47.3612 55.8983 47.156C56.9946 47.156 57.6524 46.7457 58.3102 46.5406H85.0598C85.0598 49.6178 86.1561 52.4898 87.9102 54.9516C89.6642 57.6185 92.5146 59.6699 95.5842 60.9008C96.0228 60.9008 96.242 60.9008 96.4613 60.4905C96.4613 60.0802 96.4613 59.8751 96.0228 59.6699C92.9531 58.4391 90.5413 56.5927 88.7872 54.131C87.9102 52.9001 87.0331 51.2589 86.5946 49.8229C87.0331 50.2332 87.6909 50.6435 88.3487 51.0538C90.5413 52.4898 93.6109 53.5156 97.3383 53.9258C97.7768 53.9258 97.9961 53.9258 98.2154 53.3104C98.2154 52.9001 98.2154 52.695 97.5576 52.4898C94.0494 52.0795 91.1991 51.0538 89.2257 49.8229C87.4716 48.7972 86.5946 47.5663 86.1561 46.3354H97.9961C98.4346 46.3354 98.6539 46.1303 98.6539 45.72C98.6539 45.3097 98.4346 45.1046 97.9961 45.1046H86.1561C86.3754 43.8737 87.4716 42.6428 89.2257 41.6171C91.1991 40.3862 94.2687 39.3605 97.5576 38.9502C97.9961 38.9502 98.2154 38.5399 98.2154 38.1296C98.2154 37.7193 97.7768 37.5141 97.3383 37.5141C93.6109 37.9244 90.5413 38.9502 88.3487 40.3862C87.6909 40.7965 87.0331 41.2068 86.5946 41.6171C87.0331 39.9759 87.6909 38.5399 88.7872 37.309C90.5413 34.8472 92.9531 33.0009 96.0228 31.77C96.4613 31.77 96.4613 31.3597 96.4613 30.9494C96.4613 30.5392 96.0228 30.5392 95.5842 30.5392C92.2954 31.77 89.6642 33.8215 87.9102 36.4884C86.1561 38.9502 85.0598 41.8222 85.0598 44.8994H58.3102C57.4332 44.4891 55.8983 44.0788 54.1443 44.0788C52.3902 44.0788 52.1709 44.0788 51.5132 44.284C51.9517 43.8737 52.1709 43.2582 52.3902 42.6428C53.048 41.0016 53.2672 39.5656 53.048 38.745L59.4065 24.3848C61.1606 25.0002 62.9146 25.0002 64.4494 24.7951C66.2035 24.3848 67.9576 23.5642 69.4924 22.3333C69.4924 22.3333 69.4924 21.923 69.4924 21.7179C69.4924 21.7179 69.0539 21.7179 68.8346 21.7179C67.5191 22.9487 65.9843 23.5642 64.4494 23.9745C63.5724 23.9745 62.9146 23.9745 62.0376 23.9745C62.2569 23.9745 62.4761 23.7693 62.6954 23.5642C64.0109 22.7436 65.1072 21.5127 66.2035 19.8715C66.2035 19.6664 66.2035 19.4613 66.2035 19.2561C65.9843 19.2561 65.765 19.2561 65.5457 19.2561C64.6687 20.8973 63.3531 21.923 62.2569 22.7436C61.3798 23.359 60.5028 23.5642 59.845 23.359L62.2569 17.8201C62.2569 17.6149 62.2569 17.4098 62.0376 17.2046C61.8183 17.2046 61.5991 17.2046 61.3798 17.4098L58.968 22.9487C58.3102 22.5384 58.0909 21.923 57.8717 20.8973C57.6524 19.6664 57.8717 18.0252 58.0909 16.3841C58.0909 16.1789 58.0909 15.9738 57.6524 15.7686C57.4332 15.7686 57.2139 15.7686 56.9946 16.1789C56.5561 18.0252 56.3369 19.8715 56.7754 21.1024C56.7754 21.3076 56.7754 21.7179 56.9946 21.923C56.3369 21.5127 55.8983 20.8973 55.4598 20.2818C54.5828 19.051 53.925 17.4098 53.925 15.7686C53.925 15.5635 53.925 15.3583 53.4865 15.3583C53.048 15.3583 53.048 15.3583 53.048 15.7686C53.048 17.6149 53.7057 19.2561 54.5828 20.6921C55.4598 22.1282 56.7754 23.1539 58.5294 23.7693L52.1709 38.1296L52.3902 39.1553Z" fill="white"/>
<path fill-rule="evenodd" clip-rule="evenodd" d="M39.8928 169.013C40.1121 169.423 39.8928 170.039 39.4543 170.244C39.0158 170.449 38.358 170.244 38.1388 169.834C23.8869 145.216 23.0099 120.188 27.6143 98.4426C32.2188 76.6971 42.3047 57.8237 49.9788 45.72C50.198 45.3097 50.8558 45.1046 51.2943 45.3097C51.7328 45.5149 51.9521 46.1303 51.7328 46.5406C44.0588 58.6442 34.1921 77.1074 29.5877 98.6478C24.9832 120.188 25.8603 144.806 40.1121 169.013H39.8928Z" fill="white"/>
</svg>
